# xmcd
#
# Track frame offsets: 
#        150
#        9664
#        21844
#        34149
#        46770
#        56162
#        66836
#        76999
#        86681
#        99821
#        112399
#        126551
#        138534
#        148587
#        159910
#        175529
#        188877
#        202168
#        219989
#        246035
#
# Disc length: 3434 seconds
#
# Revision: 2
# Processed by: cddbd v1.5.2PL0 Copyright (c) Steve Scherf et al.
# Submitted via: ExactAudioCopy v1.1
#
DISCID=1c0d6814
DTITLE=Various Artist - hit it!... the r'n'b originals that inspired the Blue
DTITLE=s Brothers
DYEAR=2000
DGENRE=R&B
TTITLE0=Henry Mancini - Peter Gunn Theme
TTITLE1=Otis Redding - I Can't Turn You Loose
TTITLE2=Solomon Burke - Everybody Needs Somebody To Love
TTITLE3=Floyd Dixon - Hey Bartender
TTITLE4=Frankie Lane with Jimmy Carroll and His Orchestra - Rawhide
TTITLE5=5 Dutones - Shake A Tail Feather
TTITLE6=Junior Wells - Messing With The Kid
TTITLE7=The Chips - Rubber Biscuit
TTITLE8=Spencer Davis Group - Gimme Some Lovin
TTITLE9=Big Joe Turner - Flip Flop And Fly
TTITLE10=Willie Mabon - I Don't Know
TTITLE11=Sam and Dave - Soul Man
TTITLE12=Billy Boy Arnold - I Ain't Got You
TTITLE13=John Lee Hooker - Boom Boom
TTITLE14=Johnnie Taylor - Cheaper To Keep Her
TTITLE15=Wilson picket - 6345789
TTITLE16=Vaughan Monroe - Ghost Riders In The Sky
TTITLE17=Albert King - She Caught The Katy And Left Me A Mule To Ride
TTITLE18=Beginning Of The End - Funky Nassau
TTITLE19=Junior Parker - Sweet Home Chicago
EXTD=Hit It, originals that inspired the blues brothers
EXTT0=
EXTT1=
EXTT2=
EXTT3=
EXTT4=
EXTT5=
EXTT6=
EXTT7=
EXTT8=
EXTT9=
EXTT10=
EXTT11=
EXTT12=
EXTT13=
EXTT14=
EXTT15=
EXTT16=
EXTT17=
EXTT18=
EXTT19=
PLAYORDER=
